<svg width="344" height="400" viewBox="0 0 344 400" fill="none" xmlns="http://www.w3.org/2000/svg">
<g clip-path="url(#clip0)">
<path opacity="0.4" d="M343.274 388.972C343.274 394.951 266.423 399.807 171.637 399.807C76.8506 399.807 0 394.951 0 388.972C0 382.993 76.8506 378.137 171.637 378.137C266.423 378.137 343.274 382.993 343.274 388.972Z" fill="#BBBBBB"/>
<path d="M153.266 324.765C153.266 324.765 157.435 355.643 152.35 364.279C147.242 372.914 130.543 375.228 130.543 377.885C130.543 380.542 142.683 376.763 144.012 377.885C145.34 379.008 135.491 383.772 137.896 385.467C140.278 387.162 153.77 378.572 155.877 378.733C157.985 378.87 159.932 388.033 161.077 388.857C162.429 389.842 163.184 385.078 162.772 378.32C162.383 372.227 161.329 365.859 161.329 365.859C161.329 365.859 165.223 337.593 162.681 326.163C161.535 321.1 151.204 321.329 153.266 324.765Z" fill="#C7C7C7"/>
<path d="M126.878 289.604C132.81 313.037 151.365 327.148 159.977 328.705C168.59 330.263 185.77 309.716 190.122 300.645" fill="#B5B5B5"/>
<path d="M93.4116 62.0299C86.3336 34.9088 111.301 9.23088 143.279 13.2853C175.256 17.3397 191.176 58.1358 170.927 103.193C155.808 136.819 141.652 176.287 175.806 193.26C209.959 210.257 268.484 243.86 286.374 253.068C304.264 262.277 328.636 256.848 340.571 255.771C352.505 254.695 332.37 291.116 294.506 310.517C260.353 328.018 218.503 332.507 175.874 325.361C128.344 317.389 79.7365 291.116 89.6321 210.806C97.2599 148.959 124.312 113.248 127.038 96.9849C129.718 80.7444 101.543 93.1825 93.4116 62.0299Z" fill="#ECECEC"/>
<path opacity="0.3" d="M124.816 104.384C140.758 98.543 155.396 88.4413 161.168 73.0941C162.748 68.8564 163.115 62.4427 157.205 69.1542C154.204 72.5902 149.325 86.2194 125.892 90.8007C127.015 92.2667 127.473 94.2137 127.015 97.0312C126.671 99.1157 125.892 101.59 124.816 104.384Z" fill="#ECECEC"/>
<path d="M324.559 288.39C281.701 315.763 138.193 349.046 120.532 242.601C114.416 205.676 90.8687 200.499 89.6089 210.83C79.7134 291.139 128.321 317.413 175.851 325.384C218.48 332.531 260.307 328.041 294.483 310.541C307.058 304.081 317.687 295.766 325.819 287.566C325.406 287.818 324.994 288.116 324.559 288.39Z" fill="#DADADA"/>
<path d="M99.9168 54.1964C106.972 48.0346 127.084 53.0969 128.641 62.0303C130.199 70.9867 107.041 110.706 71.1923 110.706C54.3333 110.706 65.8093 98.7491 77.858 87.8457C91.3269 75.6825 95.6104 57.953 99.9168 54.1964Z" fill="#CBCBCB"/>
<path d="M123.969 16.2406C112.332 11.6364 117.738 4.05441 121.541 0C122.892 8.13174 123.694 12.7817 128.871 12.8504C127.496 6.48245 127.771 4.05436 130.474 1.87826C133.452 6.75731 134.987 12.4152 139.133 12.8504C143.279 13.2856 123.969 16.2406 123.969 16.2406Z" fill="#ECECEC"/>
<path d="M147.608 198.163C129.489 226.177 140.759 276.067 200.201 291.552C248.029 304.035 200.201 271.279 200.201 271.279C200.201 271.279 227.597 300.05 261.567 293.888C295.537 287.726 244.593 273.478 244.593 273.478C244.593 273.478 264.865 285.527 292.811 274.028C320.756 262.529 317.458 237.859 317.458 237.859C317.458 237.859 294.987 251.007 284.038 249.358C273.088 247.709 236.942 210.44 206.798 192.986C186.182 181.097 159.107 180.364 147.608 198.163Z" fill="#CACACA"/>
<path d="M116.891 36.2147C116.891 40.8418 113.363 44.5755 109.011 44.5755C104.659 44.5755 101.131 40.8189 101.131 36.2147C101.131 31.5876 104.659 27.8539 109.011 27.8539C113.363 27.831 116.891 31.5876 116.891 36.2147Z" fill="white"/>
<path d="M147.585 41.7126C147.585 46.3396 144.057 50.0734 139.705 50.0734C135.353 50.0734 131.825 46.3167 131.825 41.7126C131.825 37.0855 135.353 33.3518 139.705 33.3518C144.057 33.3289 147.585 37.0855 147.585 41.7126Z" fill="white"/>
<path d="M116.89 35.4592C116.89 38.8951 114.256 41.6897 111.026 41.6897C107.774 41.6897 105.162 38.8951 105.162 35.4592C105.162 32.0232 107.797 29.2286 111.026 29.2286C114.256 29.2286 116.89 32.0232 116.89 35.4592Z" fill="#141414"/>
<path d="M141.721 47.943C144.959 47.943 147.585 45.1535 147.585 41.7124C147.585 38.2714 144.959 35.4819 141.721 35.4819C138.482 35.4819 135.857 38.2714 135.857 41.7124C135.857 45.1535 138.482 47.943 141.721 47.943Z" fill="#141414"/>
<path d="M192.527 330.629C192.527 330.629 200.407 360.201 195.299 368.837C190.191 377.473 169.804 381.458 169.804 383.749C169.804 386.04 183.25 382.581 185.335 383.749C187.442 384.917 176.355 391.377 178.6 393.187C180.845 395.019 193.947 385.513 196.742 385.696C199.537 385.879 202.675 396.554 204.874 395.569C207.073 394.584 203.935 369.226 203.935 369.226C203.935 369.226 206.5 343.938 203.957 332.508C202.835 327.468 190.489 327.193 192.527 330.629Z" fill="#CBCBCB"/>
<path d="M166.162 295.469C172.094 318.902 186.365 334.661 199.261 334.57C208.011 334.524 225.054 315.58 229.406 306.509" fill="#ECECEC"/>
</g>
<defs>
<clipPath id="clip0">
<rect width="344" height="399.807" fill="white"/>
</clipPath>
</defs>
</svg>
