<svg width="1568" height="500" viewBox="0 0 1568 500" fill="none" xmlns="http://www.w3.org/2000/svg">
<circle cx="250" cy="250" r="250" fill="#3E6DD7"/>
<g clip-path="url(#clip0)">
<path d="M269.263 337.645L291.133 342.795C288.117 342.795 289.248 377.367 288.494 378.471C287.74 379.574 302.823 390.24 311.495 393.182C318.434 395.536 324.19 398.086 326.201 399.067C334.497 410.469 321.299 409.365 317.906 407.894C315.191 406.717 312.501 407.403 311.495 407.894C315.266 418.928 305.839 415.618 298.675 411.94C292.943 408.997 292.265 410.713 292.642 411.94C293.848 419.296 289.122 418.683 286.608 417.457C283.215 417.212 275.372 414.735 271.149 406.791C266.925 398.846 272.908 383.865 276.428 377.367L269.263 337.645Z" fill="#FE873C"/>
<path d="M202.197 337.645L224.047 343.146C221.034 343.146 222.164 380.081 221.411 381.259C220.657 382.438 235.726 393.833 244.391 396.976C251.323 399.491 257.075 402.215 259.084 403.263C267.372 415.443 254.186 414.264 250.796 412.693C248.083 411.436 245.396 412.169 244.391 412.693C248.158 424.481 238.741 420.944 231.582 417.015C225.856 413.871 225.178 415.705 225.555 417.015C226.76 424.874 222.038 424.218 219.527 422.909C216.136 422.647 208.301 420.001 204.081 411.514C199.862 403.027 205.839 387.022 209.355 380.081L202.197 337.645Z" fill="#FE873C"/>
<path d="M335.683 73.9399C326.331 62.1706 316.577 56.2859 311.927 55.1825C300.071 49.6656 252.74 62.2339 269.709 118.874C283.283 164.186 273.604 194.884 267.069 204.57L260.659 209.351C191.277 229.948 162.367 255.938 156.586 266.359C154.071 268.075 146.932 272.538 138.486 276.657C127.928 281.806 126.797 284.749 132.076 289.53C136.299 293.355 142.382 297.254 144.896 298.725L142.257 300.564C142.558 316.747 176.068 326.922 192.785 329.987C212.996 367.355 250.98 356.346 267.446 346.17C306.36 366.178 323.379 334.891 327.024 316.747C329.035 316.379 335.395 308.582 344.746 280.335C354.098 252.089 340.85 226.147 333.057 216.707C326.018 200.524 310.885 161.612 306.662 135.425C301.383 102.691 305.53 101.956 311.941 101.956H327.778C330.418 103.427 337.884 106.443 346.632 106.737C355.38 107.031 354.299 101.71 352.665 99.0132C350.905 95.2127 345.034 85.7093 335.683 73.9399Z" fill="#F3F3F3"/>
<path d="M305.526 77.1656C310.329 70.6073 311.78 59.7761 311.905 55.1803C320.911 55.7765 334.671 71.5761 340.425 79.4014C348.681 88.0962 362.34 105.933 350.932 107.722C336.672 109.957 331.419 102.505 328.041 103.623C324.664 104.74 318.66 105.486 312.656 102.505C306.652 99.5236 299.522 85.3636 305.526 77.1656Z" fill="#FD883B"/>
<path d="M296.467 71.3632C294.801 71.3632 293.45 70.0458 293.45 68.4208C293.45 66.7958 294.801 65.4785 296.467 65.4785C298.133 65.4785 299.483 66.7958 299.483 68.4208C299.483 70.0458 298.133 71.3632 296.467 71.3632Z" fill="black"/>
</g>
<path d="M621.36 127.2H640.08V192.288C640.08 198.816 639.216 204.432 637.488 209.136C635.76 213.84 633.36 217.728 630.288 220.8C627.216 223.872 623.472 226.128 619.056 227.568C614.64 229.008 609.792 229.728 604.512 229.728C578.976 229.728 566.208 218.064 566.208 194.736V127.2H585.936V190.848C585.936 194.784 586.272 198.144 586.944 200.928C587.712 203.616 588.864 205.824 590.4 207.552C591.936 209.184 593.856 210.384 596.16 211.152C598.464 211.824 601.152 212.16 604.224 212.16C610.272 212.16 614.64 210.48 617.328 207.12C620.016 203.76 621.36 198.336 621.36 190.848V127.2ZM700.553 228V187.104C700.553 181.248 699.689 177.024 697.961 174.432C696.329 171.84 693.497 170.544 689.465 170.544C685.913 170.544 682.889 171.6 680.393 173.712C677.993 175.728 676.265 178.272 675.209 181.344V228H656.489V156H671.321L673.481 165.504H674.057C676.265 162.432 679.193 159.744 682.841 157.44C686.489 155.136 691.193 153.984 696.953 153.984C700.505 153.984 703.673 154.464 706.457 155.424C709.241 156.384 711.593 157.968 713.513 160.176C715.433 162.384 716.873 165.408 717.833 169.248C718.793 172.992 719.273 177.648 719.273 183.216V228H700.553ZM727.47 156H737.406V142.464L756.126 137.136V156H773.694V171.84H756.126V199.488C756.126 204.48 756.606 208.08 757.566 210.288C758.622 212.4 760.542 213.456 763.326 213.456C765.246 213.456 766.878 213.264 768.222 212.88C769.662 212.496 771.246 211.92 772.974 211.152L776.286 225.552C773.694 226.8 770.67 227.856 767.214 228.72C763.758 229.584 760.254 230.016 756.702 230.016C750.078 230.016 745.182 228.336 742.014 224.976C738.942 221.52 737.406 215.904 737.406 208.128V171.84H727.47V156ZM786.745 156H805.465V228H786.745V156ZM784.009 135.696C784.009 132.912 785.017 130.56 787.033 128.64C789.145 126.624 792.025 125.616 795.673 125.616C799.321 125.616 802.249 126.624 804.457 128.64C806.761 130.56 807.913 132.912 807.913 135.696C807.913 138.48 806.761 140.832 804.457 142.752C802.249 144.576 799.321 145.488 795.673 145.488C792.025 145.488 789.145 144.576 787.033 142.752C785.017 140.832 784.009 138.48 784.009 135.696ZM816.345 156H826.281V142.464L845.001 137.136V156H862.569V171.84H845.001V199.488C845.001 204.48 845.481 208.08 846.441 210.288C847.497 212.4 849.417 213.456 852.201 213.456C854.121 213.456 855.753 213.264 857.097 212.88C858.537 212.496 860.121 211.92 861.849 211.152L865.161 225.552C862.569 226.8 859.545 227.856 856.089 228.72C852.633 229.584 849.129 230.016 845.577 230.016C838.953 230.016 834.057 228.336 830.889 224.976C827.817 221.52 826.281 215.904 826.281 208.128V171.84H816.345V156ZM893.332 203.808C893.332 207.168 893.764 209.616 894.628 211.152C895.492 212.688 896.884 213.456 898.804 213.456C899.956 213.456 901.06 213.36 902.116 213.168C903.268 212.976 904.66 212.544 906.292 211.872L908.308 226.56C906.772 227.328 904.42 228.096 901.252 228.864C898.084 229.632 894.82 230.016 891.46 230.016C885.988 230.016 881.812 228.768 878.932 226.272C876.052 223.68 874.612 219.456 874.612 213.6V127.2H893.332V203.808ZM973.964 221.808C971.084 224.112 967.148 226.08 962.156 227.712C957.26 229.248 952.028 230.016 946.46 230.016C934.844 230.016 926.348 226.656 920.972 219.936C915.596 213.12 912.908 203.808 912.908 192C912.908 179.328 915.932 169.824 921.98 163.488C928.028 157.152 936.524 153.984 947.468 153.984C951.116 153.984 954.668 154.464 958.124 155.424C961.58 156.384 964.652 157.968 967.34 160.176C970.028 162.384 972.188 165.36 973.82 169.104C975.452 172.848 976.268 177.504 976.268 183.072C976.268 185.088 976.124 187.248 975.836 189.552C975.644 191.856 975.308 194.256 974.828 196.752H931.628C931.916 202.8 933.452 207.36 936.236 210.432C939.116 213.504 943.724 215.04 950.06 215.04C953.996 215.04 957.5 214.464 960.572 213.312C963.74 212.064 966.14 210.816 967.772 209.568L973.964 221.808ZM947.18 168.96C942.284 168.96 938.636 170.448 936.236 173.424C933.932 176.304 932.54 180.192 932.06 185.088H958.844C959.228 179.904 958.412 175.92 956.396 173.136C954.476 170.352 951.404 168.96 947.18 168.96ZM1050.69 202.656C1050.69 206.688 1050.74 210.72 1050.83 214.752C1050.93 218.784 1051.36 223.248 1052.13 228.144H1038.74L1036.15 218.784H1035.57C1033.65 222.144 1030.87 224.88 1027.22 226.992C1023.67 229.008 1019.44 230.016 1014.55 230.016C1005.52 230.016 998.513 227.04 993.521 221.088C988.529 215.136 986.033 205.824 986.033 193.152C986.033 180.864 988.817 171.312 994.385 164.496C999.953 157.68 1008.11 154.272 1018.87 154.272C1021.84 154.272 1024.29 154.464 1026.21 154.848C1028.13 155.136 1030.05 155.664 1031.97 156.432V127.2H1050.69V202.656ZM1018.87 214.176C1022.51 214.176 1025.39 213.312 1027.51 211.584C1029.62 209.76 1031.11 207.168 1031.97 203.808V173.28C1030.63 172.224 1029.14 171.456 1027.51 170.976C1025.87 170.4 1023.76 170.112 1021.17 170.112C1015.89 170.112 1011.91 171.888 1009.22 175.44C1006.63 178.992 1005.33 185.088 1005.33 193.728C1005.33 199.872 1006.39 204.816 1008.5 208.56C1010.71 212.304 1014.16 214.176 1018.87 214.176ZM1170.33 144.768H1140.96V228H1121.23V144.768H1091.71V127.2H1170.33V144.768ZM1219.35 221.808C1216.47 224.112 1212.54 226.08 1207.55 227.712C1202.65 229.248 1197.42 230.016 1191.85 230.016C1180.23 230.016 1171.74 226.656 1166.36 219.936C1160.99 213.12 1158.3 203.808 1158.3 192C1158.3 179.328 1161.32 169.824 1167.37 163.488C1173.42 157.152 1181.91 153.984 1192.86 153.984C1196.51 153.984 1200.06 154.464 1203.51 155.424C1206.97 156.384 1210.04 157.968 1212.73 160.176C1215.42 162.384 1217.58 165.36 1219.21 169.104C1220.84 172.848 1221.66 177.504 1221.66 183.072C1221.66 185.088 1221.51 187.248 1221.23 189.552C1221.03 191.856 1220.7 194.256 1220.22 196.752H1177.02C1177.31 202.8 1178.84 207.36 1181.63 210.432C1184.51 213.504 1189.11 215.04 1195.45 215.04C1199.39 215.04 1202.89 214.464 1205.96 213.312C1209.13 212.064 1211.53 210.816 1213.16 209.568L1219.35 221.808ZM1192.57 168.96C1187.67 168.96 1184.03 170.448 1181.63 173.424C1179.32 176.304 1177.93 180.192 1177.45 185.088H1204.23C1204.62 179.904 1203.8 175.92 1201.79 173.136C1199.87 170.352 1196.79 168.96 1192.57 168.96ZM1264.69 208.128C1264.69 206.208 1263.87 204.672 1262.24 203.52C1260.61 202.368 1258.59 201.312 1256.19 200.352C1253.79 199.392 1251.15 198.432 1248.27 197.472C1245.39 196.416 1242.75 195.024 1240.35 193.296C1237.95 191.472 1235.94 189.216 1234.3 186.528C1232.67 183.744 1231.86 180.192 1231.86 175.872C1231.86 168.768 1233.97 163.344 1238.19 159.6C1242.42 155.856 1248.51 153.984 1256.48 153.984C1261.95 153.984 1266.9 154.56 1271.31 155.712C1275.73 156.864 1279.18 158.16 1281.68 159.6L1277.5 173.136C1275.3 172.272 1272.51 171.36 1269.15 170.4C1265.79 169.44 1262.38 168.96 1258.93 168.96C1253.36 168.96 1250.58 171.12 1250.58 175.44C1250.58 177.168 1251.39 178.56 1253.02 179.616C1254.66 180.672 1256.67 181.68 1259.07 182.64C1261.47 183.504 1264.11 184.464 1266.99 185.52C1269.87 186.576 1272.51 187.968 1274.91 189.696C1277.31 191.328 1279.33 193.488 1280.96 196.176C1282.59 198.864 1283.41 202.32 1283.41 206.544C1283.41 213.84 1281.06 219.6 1276.35 223.824C1271.74 227.952 1264.78 230.016 1255.47 230.016C1250.38 230.016 1245.58 229.344 1241.07 228C1236.66 226.752 1233.06 225.264 1230.27 223.536L1235.46 209.568C1237.66 210.816 1240.59 212.064 1244.24 213.312C1247.89 214.464 1251.63 215.04 1255.47 215.04C1258.26 215.04 1260.46 214.512 1262.1 213.456C1263.82 212.4 1264.69 210.624 1264.69 208.128ZM1288.14 156H1298.08V142.464L1316.8 137.136V156H1334.37V171.84H1316.8V199.488C1316.8 204.48 1317.28 208.08 1318.24 210.288C1319.29 212.4 1321.21 213.456 1324 213.456C1325.92 213.456 1327.55 213.264 1328.89 212.88C1330.33 212.496 1331.92 211.92 1333.65 211.152L1336.96 225.552C1334.37 226.8 1331.34 227.856 1327.89 228.72C1324.43 229.584 1320.93 230.016 1317.37 230.016C1310.75 230.016 1305.85 228.336 1302.69 224.976C1299.61 221.52 1298.08 215.904 1298.08 208.128V171.84H1288.14V156ZM1347.42 156H1366.14V228H1347.42V156ZM1344.68 135.696C1344.68 132.912 1345.69 130.56 1347.71 128.64C1349.82 126.624 1352.7 125.616 1356.35 125.616C1359.99 125.616 1362.92 126.624 1365.13 128.64C1367.43 130.56 1368.59 132.912 1368.59 135.696C1368.59 138.48 1367.43 140.832 1365.13 142.752C1362.92 144.576 1359.99 145.488 1356.35 145.488C1352.7 145.488 1349.82 144.576 1347.71 142.752C1345.69 140.832 1344.68 138.48 1344.68 135.696ZM1428.57 228V187.104C1428.57 181.248 1427.7 177.024 1425.98 174.432C1424.34 171.84 1421.51 170.544 1417.48 170.544C1413.93 170.544 1410.9 171.6 1408.41 173.712C1406.01 175.728 1404.28 178.272 1403.22 181.344V228H1384.5V156H1399.34L1401.5 165.504H1402.07C1404.28 162.432 1407.21 159.744 1410.86 157.44C1414.5 155.136 1419.21 153.984 1424.97 153.984C1428.52 153.984 1431.69 154.464 1434.47 155.424C1437.26 156.384 1439.61 157.968 1441.53 160.176C1443.45 162.384 1444.89 165.408 1445.85 169.248C1446.81 172.992 1447.29 177.648 1447.29 183.216V228H1428.57ZM1523.89 228C1523.89 238.464 1521.05 246.144 1515.39 251.04C1509.73 256.032 1501.81 258.528 1491.63 258.528C1484.72 258.528 1479.25 258.048 1475.21 257.088C1471.28 256.128 1468.3 255.12 1466.29 254.064L1470.17 239.232C1472.38 240.096 1474.93 240.96 1477.81 241.824C1480.78 242.688 1484.43 243.12 1488.75 243.12C1495.28 243.12 1499.69 241.68 1502 238.8C1504.4 236.016 1505.6 232.08 1505.6 226.992V222.384H1505.02C1501.66 226.896 1495.71 229.152 1487.17 229.152C1477.85 229.152 1470.89 226.272 1466.29 220.512C1461.77 214.752 1459.52 205.728 1459.52 193.44C1459.52 180.576 1462.59 170.832 1468.73 164.208C1474.88 157.584 1483.81 154.272 1495.52 154.272C1501.66 154.272 1507.13 154.704 1511.93 155.568C1516.83 156.432 1520.81 157.44 1523.89 158.592V228ZM1492.21 214.176C1495.85 214.176 1498.64 213.36 1500.56 211.728C1502.57 210.096 1504.11 207.648 1505.17 204.384V171.984C1502.19 170.736 1498.49 170.112 1494.08 170.112C1489.28 170.112 1485.53 171.936 1482.85 175.584C1480.16 179.136 1478.81 184.848 1478.81 192.72C1478.81 199.728 1479.97 205.056 1482.27 208.704C1484.57 212.352 1487.89 214.176 1492.21 214.176ZM610.128 386.928C610.128 383.856 608.976 381.36 606.672 379.44C604.464 377.52 601.632 375.792 598.176 374.256C594.816 372.624 591.12 370.992 587.088 369.36C583.152 367.632 579.456 365.568 576 363.168C572.64 360.672 569.808 357.6 567.504 353.952C565.296 350.304 564.192 345.648 564.192 339.984C564.192 335.088 565.008 330.864 566.64 327.312C568.272 323.664 570.576 320.64 573.552 318.24C576.624 315.84 580.224 314.064 584.352 312.912C588.48 311.76 593.088 311.184 598.176 311.184C604.032 311.184 609.552 311.712 614.736 312.768C619.92 313.728 624.192 315.168 627.552 317.088L621.36 333.648C619.248 332.304 616.08 331.104 611.856 330.048C607.632 328.896 603.072 328.32 598.176 328.32C593.568 328.32 590.016 329.232 587.52 331.056C585.12 332.88 583.92 335.328 583.92 338.4C583.92 341.28 585.024 343.68 587.232 345.6C589.536 347.52 592.368 349.296 595.728 350.928C599.184 352.56 602.88 354.24 606.816 355.968C610.848 357.696 614.544 359.808 617.904 362.304C621.36 364.704 624.192 367.728 626.4 371.376C628.704 374.928 629.856 379.392 629.856 384.768C629.856 390.144 628.944 394.8 627.12 398.736C625.392 402.576 622.896 405.792 619.632 408.384C616.464 410.976 612.576 412.896 607.968 414.144C603.456 415.392 598.464 416.016 592.992 416.016C585.792 416.016 579.456 415.344 573.984 414C568.512 412.656 564.48 411.312 561.888 409.968L568.224 393.12C569.28 393.696 570.624 394.32 572.256 394.992C573.984 395.664 575.904 396.288 578.016 396.864C580.128 397.44 582.336 397.92 584.64 398.304C587.04 398.688 589.488 398.88 591.984 398.88C597.84 398.88 602.304 397.92 605.376 396C608.544 393.984 610.128 390.96 610.128 386.928ZM668.775 382.464L671.367 393.696H672.231L674.103 382.32L685.047 342H704.343L682.455 406.944C680.631 412.32 678.855 417.216 677.127 421.632C675.495 426.144 673.671 430.032 671.655 433.296C669.639 436.56 667.383 439.056 664.887 440.784C662.487 442.608 659.607 443.52 656.247 443.52C651.255 443.52 647.271 442.704 644.295 441.072L647.751 426.096C649.191 426.672 650.631 426.96 652.071 426.96C654.279 426.96 656.391 426 658.407 424.08C660.519 422.256 662.103 418.896 663.159 414L633.063 342H655.527L668.775 382.464ZM741.141 394.128C741.141 392.208 740.325 390.672 738.693 389.52C737.061 388.368 735.045 387.312 732.645 386.352C730.245 385.392 727.605 384.432 724.725 383.472C721.845 382.416 719.205 381.024 716.805 379.296C714.405 377.472 712.389 375.216 710.757 372.528C709.125 369.744 708.309 366.192 708.309 361.872C708.309 354.768 710.421 349.344 714.645 345.6C718.869 341.856 724.965 339.984 732.933 339.984C738.405 339.984 743.349 340.56 747.765 341.712C752.181 342.864 755.637 344.16 758.133 345.6L753.957 359.136C751.749 358.272 748.965 357.36 745.605 356.4C742.245 355.44 738.837 354.96 735.381 354.96C729.813 354.96 727.029 357.12 727.029 361.44C727.029 363.168 727.845 364.56 729.477 365.616C731.109 366.672 733.125 367.68 735.525 368.64C737.925 369.504 740.565 370.464 743.445 371.52C746.325 372.576 748.965 373.968 751.365 375.696C753.765 377.328 755.781 379.488 757.413 382.176C759.045 384.864 759.861 388.32 759.861 392.544C759.861 399.84 757.509 405.6 752.805 409.824C748.197 413.952 741.237 416.016 731.925 416.016C726.837 416.016 722.037 415.344 717.525 414C713.109 412.752 709.509 411.264 706.725 409.536L711.909 395.568C714.117 396.816 717.045 398.064 720.693 399.312C724.341 400.464 728.085 401.04 731.925 401.04C734.709 401.04 736.917 400.512 738.549 399.456C740.277 398.4 741.141 396.624 741.141 394.128ZM764.595 342H774.531V328.464L793.251 323.136V342H810.819V357.84H793.251V385.488C793.251 390.48 793.731 394.08 794.691 396.288C795.747 398.4 797.667 399.456 800.451 399.456C802.371 399.456 804.003 399.264 805.347 398.88C806.787 398.496 808.371 397.92 810.099 397.152L813.411 411.552C810.819 412.8 807.795 413.856 804.339 414.72C800.883 415.584 797.379 416.016 793.827 416.016C787.203 416.016 782.307 414.336 779.139 410.976C776.067 407.52 774.531 401.904 774.531 394.128V357.84H764.595V342ZM879.183 407.808C876.303 410.112 872.367 412.08 867.375 413.712C862.479 415.248 857.247 416.016 851.679 416.016C840.063 416.016 831.567 412.656 826.191 405.936C820.815 399.12 818.127 389.808 818.127 378C818.127 365.328 821.151 355.824 827.199 349.488C833.247 343.152 841.743 339.984 852.687 339.984C856.335 339.984 859.887 340.464 863.343 341.424C866.799 342.384 869.871 343.968 872.559 346.176C875.247 348.384 877.407 351.36 879.039 355.104C880.671 358.848 881.487 363.504 881.487 369.072C881.487 371.088 881.343 373.248 881.055 375.552C880.863 377.856 880.527 380.256 880.047 382.752H836.847C837.135 388.8 838.671 393.36 841.455 396.432C844.335 399.504 848.943 401.04 855.279 401.04C859.215 401.04 862.719 400.464 865.791 399.312C868.959 398.064 871.359 396.816 872.991 395.568L879.183 407.808ZM852.399 354.96C847.503 354.96 843.855 356.448 841.455 359.424C839.151 362.304 837.759 366.192 837.279 371.088H864.063C864.447 365.904 863.631 361.92 861.615 359.136C859.695 356.352 856.623 354.96 852.399 354.96ZM935.604 414V374.832C935.604 368.208 934.98 363.504 933.732 360.72C932.484 357.936 929.892 356.544 925.956 356.544C922.692 356.544 920.052 357.456 918.036 359.28C916.02 361.008 914.484 363.264 913.428 366.048V414H894.708V342H909.252L911.412 351.504H911.988C914.196 348.432 916.98 345.744 920.34 343.44C923.796 341.136 928.212 339.984 933.588 339.984C938.196 339.984 941.94 340.944 944.82 342.864C947.796 344.688 950.1 347.808 951.732 352.224C953.94 348.48 956.772 345.504 960.228 343.296C963.684 341.088 967.86 339.984 972.756 339.984C976.788 339.984 980.196 340.464 982.98 341.424C985.86 342.384 988.164 344.064 989.892 346.464C991.716 348.768 993.06 351.888 993.924 355.824C994.788 359.76 995.22 364.752 995.22 370.8V414H976.5V373.536C976.5 367.872 975.876 363.648 974.628 360.864C973.476 357.984 970.836 356.544 966.708 356.544C963.348 356.544 960.66 357.456 958.644 359.28C956.724 361.104 955.284 363.6 954.324 366.768V414H935.604Z" fill="black"/>
<defs>
<clipPath id="clip0">
<rect width="227" height="370" fill="white" transform="matrix(-1 0 0 1 355 54)"/>
</clipPath>
</defs>
</svg>
