<svg width="500" height="500" viewBox="0 0 500 500" fill="none" xmlns="http://www.w3.org/2000/svg">
<circle cx="250" cy="250" r="250" fill="#3E6DD7"/>
<g clip-path="url(#clip0)">
<path d="M269.263 337.645L291.133 342.795C288.116 342.795 289.248 377.367 288.494 378.471C287.739 379.574 302.822 390.24 311.495 393.182C318.433 395.536 324.19 398.086 326.201 399.067C334.497 410.469 321.299 409.365 317.906 407.894C315.191 406.717 312.501 407.403 311.495 407.894C315.266 418.928 305.839 415.618 298.675 411.94C292.943 408.997 292.264 410.713 292.641 411.94C293.848 419.296 289.122 418.683 286.608 417.457C283.214 417.212 275.372 414.735 271.148 406.791C266.925 398.846 272.908 383.865 276.427 377.367L269.263 337.645Z" fill="#FE873C"/>
<path d="M202.198 337.645L224.048 343.146C221.034 343.146 222.165 380.081 221.411 381.259C220.658 382.438 235.726 393.833 244.392 396.976C251.323 399.491 257.075 402.215 259.084 403.263C267.372 415.443 254.187 414.264 250.796 412.693C248.083 411.436 245.396 412.169 244.392 412.693C248.159 424.481 238.741 420.944 231.582 417.015C225.856 413.871 225.178 415.705 225.555 417.015C226.76 424.874 222.039 424.218 219.527 422.909C216.137 422.647 208.301 420.001 204.081 411.514C199.862 403.027 205.839 387.022 209.355 380.081L202.198 337.645Z" fill="#FE873C"/>
<path d="M335.683 73.9399C326.331 62.1706 316.577 56.2859 311.927 55.1825C300.071 49.6656 252.74 62.2339 269.709 118.874C283.283 164.186 273.604 194.884 267.069 204.57L260.659 209.351C191.277 229.948 162.367 255.938 156.586 266.359C154.071 268.075 146.932 272.538 138.486 276.657C127.928 281.806 126.797 284.749 132.076 289.53C136.299 293.355 142.382 297.254 144.896 298.725L142.257 300.564C142.558 316.747 176.068 326.922 192.785 329.987C212.996 367.355 250.98 356.346 267.446 346.17C306.36 366.178 323.379 334.891 327.024 316.747C329.035 316.379 335.395 308.582 344.746 280.335C354.098 252.089 340.85 226.147 333.057 216.707C326.018 200.524 310.885 161.612 306.662 135.425C301.383 102.691 305.53 101.956 311.941 101.956H327.778C330.418 103.427 337.884 106.443 346.632 106.737C355.38 107.031 354.299 101.71 352.665 99.0132C350.905 95.2127 345.034 85.7093 335.683 73.9399Z" fill="#F3F3F3"/>
<path d="M305.526 77.1657C310.329 70.6073 311.78 59.7761 311.905 55.1803C320.911 55.7765 334.671 71.5762 340.425 79.4015C348.681 88.0963 362.34 105.933 350.932 107.722C336.672 109.957 331.419 102.505 328.041 103.623C324.664 104.741 318.66 105.486 312.656 102.505C306.652 99.5237 299.522 85.3636 305.526 77.1657Z" fill="#FD883B"/>
<path d="M296.467 71.3631C294.801 71.3631 293.45 70.0458 293.45 68.4208C293.45 66.7958 294.801 65.4785 296.467 65.4785C298.133 65.4785 299.483 66.7958 299.483 68.4208C299.483 70.0458 298.133 71.3631 296.467 71.3631Z" fill="black"/>
</g>
<defs>
<clipPath id="clip0">
<rect width="227" height="370" fill="white" transform="matrix(-1 0 0 1 355 54)"/>
</clipPath>
</defs>
</svg>
